<?xml version="1.0"?>
<svg width="400" height="400" xmlns="http://www.w3.org/2000/svg" xmlns:svg="http://www.w3.org/2000/svg" xmlns:xlink="http://www.w3.org/1999/xlink">
 <!-- Created with SVG-edit - https://github.com/SVG-Edit/svgedit-->
 <defs>
  <symbol height="368.35" id="svg_1" version="1.1" viewBox="0 0 123.99661620091138 122.78497112214427" width="371.99" xmlns="http://www.w3.org/2000/svg">
   <!-- svg-source:excalidraw -->
   <defs>
    <style class="style-fonts">@font-face {
        font-family: &quot;Virgil&quot;;
        src: url(&quot;https://excalidraw.com/Virgil.woff2&quot;);
      }
      @font-face {
        font-family: &quot;Cascadia&quot;;
        src: url(&quot;https://excalidraw.com/Cascadia.woff2&quot;);
      }</style>
   </defs>
   <g stroke-linecap="round" transform="translate(10 10) rotate(0 51.99830810045569 51.392485561072135)">
    <path d="m25.7,0l58.62,0.4l5.22,1.21l4.42,2l3.61,2.81l2.81,3.62l2.01,4.41l1.61,11.25l-0.4,57.41l-1.21,5.22l-2.01,4.42l-2.81,3.61l-3.61,2.81l-4.42,2.01l-11.24,1.6l-58.63,-0.4l-5.22,-1.2l-4.41,-2.01l-3.62,-2.81l-2.81,-3.61l-2,-4.42l-1.21,-5.22l-0.4,-6.02l0,-51.39l1.61,-11.25l2,-4.41l2.81,-3.62l3.62,-2.81l4.41,-2l11.25,-1.61" fill="#000" stroke-width="0"/>
    <path d="m25.7,0m0,0c14.83,0 29.67,0 52.6,0m-52.6,0c12.72,0 25.45,0 52.6,0m0,0c17.13,0 25.7,8.57 25.7,25.7m-25.7,-25.7c17.13,0 25.7,8.57 25.7,25.7m0,0c0,20.5 0,41.01 0,51.39m0,-51.39c0,14.02 0,28.04 0,51.39m0,0c0,17.13 -8.57,25.69 -25.7,25.69m25.7,-25.69c0,17.13 -8.57,25.69 -25.7,25.69m0,0c-14.64,0 -29.27,0 -52.6,0m52.6,0c-19.95,0 -39.9,0 -52.6,0m0,0c-17.13,0 -25.7,-8.56 -25.7,-25.69m25.7,25.69c-17.13,0 -25.7,-8.56 -25.7,-25.69m0,0c0,-18.74 0,-37.48 0,-51.39m0,51.39c0,-15.5 0,-31 0,-51.39m0,0c0,-17.13 8.57,-25.7 25.7,-25.7m-25.7,25.7c0,-17.13 8.57,-25.7 25.7,-25.7" fill="none" stroke="#000000" stroke-width="4"/>
   </g>
   <g stroke-linecap="round" transform="translate(44.622818284708046 47.81329445482879) rotate(0 18.86934451369234 18.86934451369234)">
    <path d="m2.92,-3.26c6.85,4.74 21.46,0.5 32.03,4.14m-36.88,0.19c10.77,-2.7 18.93,-3.21 39.04,-1.99m3.83,1.42c-3.62,6.37 -0.96,22.84 -2.22,39.76m0.86,-41.95c-2.95,15.04 -0.81,30.15 -1.51,41.36m-2.18,-4.4c-9.59,-0.76 -20.74,0.41 -35.74,2.17m38.63,-1.18c-14.7,1.34 -32.57,0.79 -38.44,3.32m0.72,-4.72c-3.47,-8.14 -1.24,-19.22 -3.97,-31.55m4.22,34.28c-1.45,-11.66 -1.96,-22.19 -0.56,-39.2" fill="none" stroke="#ffffff" stroke-width="4"/>
   </g>
   <g stroke-linecap="round">
    <g transform="translate(44.622818284708046 13.101773490501728) rotate(0 -0.6029191958150477 36.2567775626967)">
     <path d="m-2.84,3.88c-1.34,24.76 0.68,52.32 4.88,66.87m-3.95,-69.97c3.72,25.52 2.57,54.85 1.14,70.96" fill="none" stroke="#ffffff" stroke-width="4"/>
    </g>
   </g>
   <mask/>
   <g stroke-linecap="round" transform="translate(54.71337849491101 59.518350457459746) rotate(0 2.0181120420420484 2.4217359901467717)">
    <path d="m-0.34,0.08c1.12,-0.77 2.28,0.19 4.87,-0.35m-4.42,0.34c1.26,0.02 2.69,-0.16 3.85,-0.31m0.02,0.34c0.69,0.72 0.08,1.37 -0.42,4.21m0.85,-4.49c-0.12,1.61 -0.58,3.81 0.03,4.8m-0.55,0.26c-1.33,0.54 -2,-0.39 -4.56,0.72m5.08,-0.38c-1.79,-0.03 -3.4,-0.22 -4.51,-0.75m0.78,0.61c-1.46,-1.44 -1.46,-4.24 0.28,-4.97m-0.87,5.1c-0.11,-1.51 0.25,-2.85 0.24,-5.15" fill="none" stroke="#ffffff" stroke-width="4"/>
   </g>
   <g stroke-linecap="round" transform="translate(67.42749051856663 59.11470341389395) rotate(0 1.91720797963535 2.219927865337013)">
    <path d="m-0.45,0.3c0.96,-0.3 2.54,0.22 4.01,-0.31m-3.41,-0.32c0.8,0.67 1.31,0.64 3.52,0.23m-0.13,0.35c0.68,1.24 0.41,2.62 0.89,4.2m-0.24,-4.03c-0.16,1.12 -0.01,1.96 -0.03,4.07m0.15,0.5c-1.21,-0.09 -2.8,-1.18 -3.88,-1.11m3.41,0.74c-0.94,-0.1 -1.62,-0.15 -3.59,0.12m-0.1,0.04c-0.6,-2.19 -0.5,-3.1 -0.59,-4.52m0.44,4.38c0.16,-1.77 0.23,-3.93 -0.17,-4.53" fill="none" stroke="#ffffff" stroke-width="4"/>
   </g>
  </symbol>
 </defs>
 <g class="layer">
  <title>Layer 1</title>
  <use id="svg_3" transform="matrix(1.2219 0 0 1.2219 197.248 125.36)" x="-183.74" xlink:href="#svg_1" y="-122.24"/>
 </g>
</svg>