<svg version="1.1" xmlns="http://www.w3.org/2000/svg" viewBox="0 0 376.1806834199306 129.5087777853314" width="1128.5420502597917" height="388.5263333559942">
  <!-- svg-source:excalidraw -->
  
  <defs>
    <style class="style-fonts">
      @font-face {
        font-family: "Virgil";
        src: url("https://excalidraw.com/Virgil.woff2");
      }
      @font-face {
        font-family: "Cascadia";
        src: url("https://excalidraw.com/Cascadia.woff2");
      }
    </style>
    
  </defs>
  <g stroke-linecap="round" transform="translate(10 10) rotate(0 178.0903417099653 54.7543888926657)"><path d="M27.38 0 L328.8 0 L340.78 1.71 L345.49 3.85 L349.34 6.84 L352.33 10.69 L354.47 15.4 L355.75 20.96 L356.18 82.13 L354.47 94.11 L352.33 98.81 L349.34 102.66 L345.49 105.66 L340.78 107.8 L335.22 109.08 L328.8 109.51 L27.38 109.51 L15.4 107.8 L10.69 105.66 L6.84 102.66 L3.85 98.81 L1.71 94.11 L0.43 88.55 L0.43 20.96 L1.71 15.4 L3.85 10.69 L6.84 6.84 L10.69 3.85 L15.4 1.71 L20.96 0.43 L27.38 0" stroke="none" stroke-width="0" fill="#000"></path><path d="M27.38 0 M27.38 0 C93.57 0, 159.77 0, 328.8 0 M27.38 0 C98.1 0, 168.82 0, 328.8 0 M328.8 0 C347.05 0, 356.18 9.13, 356.18 27.38 M328.8 0 C347.05 0, 356.18 9.13, 356.18 27.38 M356.18 27.38 C356.18 47.69, 356.18 68, 356.18 82.13 M356.18 27.38 C356.18 42.25, 356.18 57.13, 356.18 82.13 M356.18 82.13 C356.18 100.38, 347.05 109.51, 328.8 109.51 M356.18 82.13 C356.18 100.38, 347.05 109.51, 328.8 109.51 M328.8 109.51 C224.61 109.51, 120.42 109.51, 27.38 109.51 M328.8 109.51 C252.21 109.51, 175.61 109.51, 27.38 109.51 M27.38 109.51 C9.13 109.51, 0 100.38, 0 82.13 M27.38 109.51 C9.13 109.51, 0 100.38, 0 82.13 M0 82.13 C0 61.43, 0 40.72, 0 27.38 M0 82.13 C0 71.09, 0 60.05, 0 27.38 M0 27.38 C0 9.13, 9.13 0, 27.38 0 M0 27.38 C0 9.13, 9.13 0, 27.38 0" stroke="#000000" stroke-width="4" fill="none"></path></g><g stroke-linecap="round" transform="translate(168.20078579113033 54.100098031109155) rotate(0 18.86934451369234 18.86934451369234)"><path d="M2.92 -3.26 C9.77 1.48, 24.38 -2.76, 34.95 0.88 M-1.93 1.07 C8.84 -1.63, 17 -2.14, 37.11 -0.92 M40.94 0.5 C37.32 6.87, 39.98 23.34, 38.72 40.26 M39.58 -1.69 C36.63 13.35, 38.77 28.46, 38.07 39.67 M35.89 35.27 C26.3 34.51, 15.15 35.68, 0.15 37.44 M38.78 36.26 C24.08 37.6, 6.21 37.05, 0.34 39.58 M1.06 34.86 C-2.41 26.72, -0.18 15.64, -2.91 3.31 M1.31 37.59 C-0.14 25.93, -0.65 15.4, 0.75 -1.61" stroke="#ffffff" stroke-width="4" fill="none"></path></g><g stroke-linecap="round"><g transform="translate(168.20078579113033 19.38857706678209) rotate(0 -0.6029191958150477 36.2567775626967)"><path d="M-2.84 3.88 C-4.18 28.64, -2.16 56.2, 2.04 70.75 M-1.91 0.78 C1.81 26.3, 0.66 55.63, -0.77 71.74" stroke="#ffffff" stroke-width="4" fill="none"></path></g></g><mask></mask><g stroke-linecap="round" transform="translate(178.2913460013333 65.80515403374011) rotate(0 2.0181120420420484 2.4217359901467717)"><path d="M-0.34 0.08 C0.78 -0.69, 1.94 0.27, 4.53 -0.27 M0.11 0.07 C1.37 0.09, 2.8 -0.09, 3.96 -0.24 M3.98 0.1 C4.67 0.82, 4.06 1.47, 3.56 4.31 M4.41 -0.18 C4.29 1.43, 3.83 3.63, 4.44 4.62 M3.89 4.88 C2.56 5.42, 1.89 4.49, -0.67 5.6 M4.41 5.22 C2.62 5.19, 1.01 5, -0.1 4.47 M0.68 5.08 C-0.78 3.64, -0.78 0.84, 0.96 0.11 M0.09 5.21 C-0.02 3.7, 0.34 2.36, 0.33 0.06" stroke="#ffffff" stroke-width="4" fill="none"></path></g><g stroke-linecap="round" transform="translate(191.0054580249889 65.40150699017431) rotate(0 1.91720797963535 2.219927865337013)"><path d="M-0.45 0.3 C0.51 0, 2.09 0.52, 3.56 -0.01 M0.15 -0.33 C0.95 0.34, 1.46 0.31, 3.67 -0.1 M3.54 0.25 C4.22 1.49, 3.95 2.87, 4.43 4.45 M4.19 0.42 C4.03 1.54, 4.18 2.38, 4.16 4.49 M4.31 4.99 C3.1 4.9, 1.51 3.81, 0.43 3.88 M3.84 4.62 C2.9 4.52, 2.22 4.47, 0.25 4.74 M0.15 4.78 C-0.45 2.59, -0.35 1.68, -0.44 0.26 M0 4.64 C0.16 2.87, 0.23 0.71, -0.17 0.11" stroke="#ffffff" stroke-width="4" fill="none"></path></g><g stroke-linecap="round"><g transform="translate(23.756778225390008 21.296824355533317) rotate(0 3.898183236560726 2.962593543488765)"><path d="M-0.96 -0.64 C-0.08 0.13, 5.23 4.29, 6.35 5.37 M0.74 1.64 C1.93 2.5, 7.53 5.66, 8.75 6.56" stroke="#343a40" stroke-width="2" fill="none"></path></g></g><mask></mask><g stroke-linecap="round"><g transform="translate(24.68320550322096 28.70826908361596) rotate(0 2.4840033037944522 -4.524572218691901)"><path d="M-1.16 0.55 C-0.31 -0.73, 5.09 -6.47, 6.13 -7.77 M0.43 -0.21 C1.08 -1.83, 4.88 -8.12, 5.48 -9.6" stroke="#343a40" stroke-width="2" fill="none"></path></g></g><mask></mask><g stroke-linecap="round"><g transform="translate(25.339440331285005 100.60552932178689) rotate(0 2.3589465120348905 3.269885716323188)"><path d="M-0.23 0.61 C0.85 1.33, 5.25 4.49, 6.52 5.43 M-1.8 -0.12 C-0.93 1.28, 3.9 5.36, 5.35 6.66" stroke="#343a40" stroke-width="2" fill="none"></path></g></g><mask></mask><g stroke-linecap="round"><g transform="translate(26.265867609115958 108.01697404986771) rotate(0 2.7952057822039933 -4.209791301301266)"><path d="M-0.43 -0.59 C0.61 -2.05, 5.03 -6.63, 6.02 -8.12 M1.55 1.71 C2.49 -0.18, 4.79 -8.37, 5.31 -10.13" stroke="#343a40" stroke-width="2" fill="none"></path></g></g><mask></mask><g stroke-linecap="round"><g transform="translate(344.17025655710313 104.56023896727493) rotate(0 3.5181483538362954 2.8160186580153095)"><path d="M1.08 -0.63 C2.41 0.44, 5.88 5.05, 6.84 6.26 M0.19 1.66 C1.45 2.35, 4.86 3.76, 5.84 4.26" stroke="#343a40" stroke-width="2" fill="none"></path></g></g><mask></mask><g stroke-linecap="round"><g transform="translate(345.0966838349268 111.97168369535575) rotate(0 1.9331330958757462 -4.633590752965574)"><path d="M-0.1 0.24 C0.63 -0.94, 4.48 -6.12, 5.48 -7.71 M-1.62 -0.68 C-1.14 -2.16, 3.34 -8.21, 4.5 -9.5" stroke="#343a40" stroke-width="2" fill="none"></path></g></g><mask></mask><g stroke-linecap="round"><g transform="translate(342.713267627445 20.26301597123893) rotate(0 3.507793840162776 3.15305470738258)"><path d="M1.14 -0.63 C2.12 0.65, 5.94 5.74, 6.74 6.93 M0.28 1.66 C1 2.68, 4.35 4.83, 5.68 5.29" stroke="#343a40" stroke-width="2" fill="none"></path></g></g><mask></mask><g stroke-linecap="round"><g transform="translate(343.639694905276 27.67446069932339) rotate(0 2.456780131755295 -4.407601075505227)"><path d="M-0.21 0.91 C0.35 -0.3, 3.65 -6.51, 4.52 -7.86 M-1.78 0.34 C-0.95 -1.17, 5.73 -8.18, 6.69 -9.73" stroke="#343a40" stroke-width="2" fill="none"></path></g></g><mask></mask></svg>